<?xml version="1.0" encoding="UTF-8" standalone="no"?>
<!-- Generator: Adobe Illustrator 14.0.0, SVG Export Plug-In . SVG Version: 6.00 Build 43363)  -->

<svg
   xmlns:dc="http://purl.org/dc/elements/1.1/"
   xmlns:cc="http://creativecommons.org/ns#"
   xmlns:rdf="http://www.w3.org/1999/02/22-rdf-syntax-ns#"
   xmlns:svg="http://www.w3.org/2000/svg"
   xmlns="http://www.w3.org/2000/svg"
   xmlns:sodipodi="http://sodipodi.sourceforge.net/DTD/sodipodi-0.dtd"
   xmlns:inkscape="http://www.inkscape.org/namespaces/inkscape"
   version="1.2"
   id="Layer_1"
   x="0px"
   y="0px"
   width="142"
   height="142"
   viewBox="0 0 142 142"
   xml:space="preserve"
   inkscape:version="0.48.4 r9939"
   sodipodi:docname="Vfl_Wolfsburg.svg"><title
   id="title2986">VfL Wolfsburg logo</title><metadata
   id="metadata9"><rdf:RDF><cc:Work
       rdf:about=""><dc:format>image/svg+xml</dc:format><dc:type
         rdf:resource="http://purl.org/dc/dcmitype/StillImage" /><dc:title>VfL Wolfsburg logo</dc:title></cc:Work></rdf:RDF></metadata><defs
   id="defs7" /><sodipodi:namedview
   pagecolor="#ffffff"
   bordercolor="#666666"
   borderopacity="1"
   objecttolerance="10"
   gridtolerance="10"
   guidetolerance="10"
   inkscape:pageopacity="0"
   inkscape:pageshadow="2"
   inkscape:window-width="1600"
   inkscape:window-height="844"
   id="namedview5"
   showgrid="false"
   inkscape:zoom="1"
   inkscape:cx="110.95414"
   inkscape:cy="31.420283"
   inkscape:window-x="-4"
   inkscape:window-y="-4"
   inkscape:window-maximized="1"
   inkscape:current-layer="Layer_1" />
<path
   id="path4400"
   d="M 1.0956667,71.089197 C 2.4928814,27.544387 32.436501,10.074977 51.980744,3.892057 60.922277,1.0629467 68.571835,0.6801967 68.53881,1.7050667 68.51294,2.592197 61.806349,1.8499867 52.321113,5.296697 c -16.537853,6.00159 -39.962206,20.93445 -41.385547,59.1426 0,35.145663 28.364761,63.634493 63.350822,63.634493 34.987542,0 63.352062,-28.48883 63.352062,-63.634493 0.0924,-7.50632 -1.25747,-13.45464 -2.9502,-18.58396 -2.96769,-9.03235 -7.41739,-13.11103 -5.74906,-13.15017 1.13054,-0.0233 5.20388,6.96428 7.60766,13.58346 2.7932,7.69905 4.08665,14.69231 4.04746,24.80007 0,38.695193 -31.22845,70.057973 -69.748585,70.057973 C 32.322634,141.14692 1.0956667,109.78414 1.0956667,71.089197"
   inkscape:connector-curvature="0"
   style="fill:#54b948" />
<path
   id="path4402"
   d="m 63.908699,49.031037 c 0,-12.46024 20.319875,-11.27608 20.319875,-11.27608 v 44.43195 c 0,3.10607 1.958166,4.96729 5.472279,4.96729 5.617694,0 5.235674,-4.96729 5.235674,-4.96729 0,3.10607 -0.0259,-32.28906 -0.0259,-45.71174 0,-11.15419 20.198853,-11.15419 20.198853,-11.15419 v 59.13417 l -0.0877,3.67413 c -1.71909,11.164353 -11.34112,19.700993 -22.712069,19.700993 -7.47506,0 -14.104988,-3.68107 -18.259414,-9.37448 -4.161332,5.69316 -10.794461,9.37448 -18.265088,9.37448 -11.37267,0 -20.801464,-8.53664 -22.520317,-19.700993 l -0.281217,-3.67413 c 0,0 -0.01725,-32.60937 -0.01725,-47.97973 0,-11.15419 20.223504,-11.15716 20.223504,-11.15716 l -0.0057,56.87756 c 0,3.14101 2.220658,4.95838 5.230004,4.95838 2.984948,0 5.521326,-1.90878 5.521326,-4.95838 -9.9e-4,-2.4e-4 -0.02686,-22.69583 -0.02686,-33.16478"
   inkscape:connector-curvature="0"
   style="fill:#54b948" />
</svg>